<svg width="55" height="51" viewBox="0 0 55 51" fill="none" xmlns="http://www.w3.org/2000/svg">
<path d="M36.6451 41.1402L34.8169 33.2178C34.5068 31.8493 34.1326 30.9138 33.6943 30.4113C33.3628 30.0264 32.7588 29.7538 31.882 29.5934L32.0585 29H42.4987L42.3063 29.5934C41.2906 29.5934 40.5475 29.8019 40.0771 30.2188C39.6173 30.6251 39.3875 31.1116 39.3875 31.6782C39.3875 32.031 39.4837 32.6458 39.6762 33.5225L41.0874 39.9534L44.5996 35.1102C45.4977 33.87 46.059 32.9986 46.2835 32.4961C46.508 31.9829 46.6203 31.5339 46.6203 31.149C46.6203 30.7641 46.4759 30.4273 46.1873 30.1386C45.8986 29.85 45.4335 29.6682 44.792 29.5934L44.9684 29H51.4956V29.5934C50.9076 29.6575 50.3997 29.85 49.9721 30.1707C49.5444 30.4915 48.7105 31.5072 47.4703 33.2178L41.2959 41.7175L39.8526 46.7532C39.5425 47.7903 39.3875 48.3944 39.3875 48.5654C39.3875 49.0252 39.5639 49.4047 39.9167 49.7041C40.2695 50.0035 40.8629 50.1531 41.6968 50.1531H42.3063L42.1299 50.7465H31L31.1604 50.1531C31.9729 50.1638 32.6251 50.0569 33.1169 49.8324C33.6087 49.5972 33.9776 49.2978 34.2235 48.9343C34.3946 48.6777 34.6458 47.9935 34.9772 46.8815L36.6451 41.1402Z" fill="black"/>
<path d="M15.4392 30.2188L13.0336 38.4299C14.6694 38.4085 15.7332 38.3444 16.225 38.2375C17.0269 38.0771 17.7539 37.7403 18.4061 37.2271C19.0583 36.7032 19.6036 35.9815 20.0419 35.0621H20.6674L18.1816 43.642H17.5401C17.647 43.0861 17.7005 42.6424 17.7005 42.3109C17.7005 41.648 17.5615 41.1188 17.2835 40.7232C17.0162 40.3276 16.6687 40.0604 16.2411 39.9214C15.8134 39.7717 14.6374 39.6755 12.7129 39.6327L10.7563 46.4165L10.3714 47.7796C10.318 48.0469 10.2913 48.3088 10.2913 48.5654C10.2913 48.9396 10.3608 49.2337 10.4997 49.4475C10.6494 49.6613 10.8846 49.8324 11.2054 49.9607C11.5261 50.0783 12.1355 50.1424 13.0336 50.1531L12.8572 50.7465H2L2.17641 50.1531C3.22418 50.1531 3.98862 49.9607 4.46974 49.5758C4.95085 49.1802 5.38386 48.3249 5.76875 47.0098L9.64977 33.6989C10.056 32.2983 10.2699 31.4002 10.2913 31.0047C10.2699 30.6305 10.0988 30.3151 9.77807 30.0585C9.45732 29.7912 8.79979 29.6361 7.80548 29.5934L7.96586 29H25.7351L24.2757 34.7413H23.6824C23.6182 33.5439 23.4311 32.6565 23.1211 32.0792C22.811 31.4911 22.2978 31.0367 21.5815 30.716C20.8758 30.3845 19.7425 30.2188 18.1816 30.2188H15.4392Z" fill="black"/>
<path d="M35.7537 10.5204H43.7082L45.4723 4.44231C45.7075 3.60837 45.8251 2.97223 45.8251 2.53388C45.8251 2.10622 45.6808 1.78013 45.3921 1.5556C45.1034 1.33108 44.4085 1.1814 43.3073 1.10656L43.4837 0.513184H54.2928L54.1164 1.10656C53.0579 1.10656 52.2561 1.33108 51.7108 1.78013C51.1655 2.22917 50.7005 3.11656 50.3156 4.44231L46.2742 18.3626C46.0069 19.2714 45.8732 19.9236 45.8732 20.3192C45.8732 20.7148 46.0176 21.0141 46.3062 21.2173C46.6804 21.4953 47.3594 21.6449 48.343 21.6663L48.1826 22.2597H37.582L37.8225 21.6663C38.8489 21.6663 39.6027 21.4685 40.0838 21.0729C40.5756 20.6667 41.0246 19.7632 41.4309 18.3626L43.3073 11.8836H35.3849L33.5246 18.3626C33.2573 19.25 33.1236 19.9076 33.1236 20.3352C33.1236 20.7201 33.284 21.0355 33.6047 21.2814C33.9362 21.5166 34.583 21.6449 35.5452 21.6663L35.3849 22.2597H24.9286L25.105 21.6663C26.1314 21.6663 26.8798 21.4685 27.3502 21.0729C27.8313 20.6667 28.275 19.7632 28.6813 18.3626L32.7227 4.44231C32.9579 3.64045 33.0755 3.00965 33.0755 2.54991C33.0755 2.11156 32.9312 1.78013 32.6425 1.5556C32.3645 1.33108 31.691 1.1814 30.6218 1.10656L30.7982 0.513184H41.4309L41.1904 1.10656C40.2067 1.10656 39.4637 1.32039 38.9612 1.74805C38.4587 2.16502 37.9989 3.06311 37.582 4.44231L35.7537 10.5204Z" fill="black"/>
<path d="M7.4894 22.7729C5.73599 22.7729 4.31937 22.4147 3.23952 21.6984C2.15968 20.9821 1.34713 20.0038 0.801863 18.7636C0.267288 17.5234 0 16.3152 0 15.1392C0 12.7657 0.67891 10.3761 2.03673 7.97051C3.39455 5.55423 5.2228 3.62442 7.52147 2.18107C9.83083 0.727022 12.1081 0 14.3533 0C15.6684 0 16.914 0.331436 18.09 0.994309C19.2768 1.65718 20.1962 2.582 20.8484 3.76875C21.5113 4.95551 21.8427 6.15296 21.8427 7.3611C21.8427 10.066 20.9821 12.7817 19.2607 15.508C17.5394 18.2237 15.6042 20.1909 13.4553 21.4097C11.8301 22.3185 9.84153 22.7729 7.4894 22.7729ZM13.8241 1.31505C12.9795 1.31505 12.2578 1.47008 11.6591 1.78013C11.071 2.0795 10.4563 2.58734 9.8148 3.30367C9.17331 4.02 8.52113 5.04639 7.85825 6.38283C7.19538 7.70857 6.56993 9.51543 5.98189 11.8034C5.40455 14.0914 5.11588 15.9998 5.11588 17.5287C5.11588 18.8331 5.39921 19.822 5.96586 20.4956C6.53251 21.1585 7.25953 21.4899 8.14692 21.4899C9.32299 21.4899 10.3226 21.0997 11.1459 20.3192C12.7817 18.7689 14.1128 16.497 15.1392 13.5034C16.1762 10.4991 16.6948 7.82618 16.6948 5.48474C16.6948 4.02 16.4168 2.96155 15.8608 2.30936C15.3156 1.64649 14.6367 1.31505 13.8241 1.31505Z" fill="black"/>
</svg>
