<?xml version="1.0" standalone="no"?>
<!DOCTYPE svg PUBLIC "-//W3C//DTD SVG 20010904//EN"
 "http://www.w3.org/TR/2001/REC-SVG-20010904/DTD/svg10.dtd">
<svg version="1.0" xmlns="http://www.w3.org/2000/svg"
 width="260.000000pt" height="260.000000pt" viewBox="0 0 260.000000 260.000000"
 preserveAspectRatio="xMidYMid meet">
<metadata>
Created by potrace 1.11, written by Peter Selinger 2001-2013
</metadata>
<g transform="translate(0.000000,260.000000) scale(0.100000,-0.100000)"
fill="#000000" stroke="none">
<path d="M730 2450 c-137 -25 -241 -82 -356 -195 -122 -121 -195 -243 -234
-392 -38 -145 -18 -320 44 -394 14 -17 26 -34 26 -38 0 -10 96 -76 130 -90 82
-33 245 -35 343 -4 157 49 320 192 423 368 55 95 104 260 104 350 0 107 -49
230 -118 294 -46 43 -146 88 -225 101 -69 11 -73 11 -137 0z m168 -80 c58 -42
66 -61 67 -170 0 -124 -16 -221 -59 -351 -89 -267 -198 -430 -310 -464 -134
-41 -219 7 -246 139 -10 48 -9 75 5 157 9 55 27 130 41 169 13 38 24 76 24 84
0 8 16 49 35 92 19 42 35 80 35 84 0 7 27 56 63 115 25 41 86 106 123 131 53
36 72 43 130 43 41 1 59 -5 92 -29z"/>
<path d="M1457 2414 c-15 -16 -6 -34 17 -34 39 0 76 -18 84 -41 10 -27 -8
-133 -41 -234 -27 -84 -61 -201 -102 -350 -14 -49 -32 -107 -40 -127 -8 -21
-22 -69 -31 -109 -19 -85 -60 -139 -104 -139 -20 0 -31 -6 -35 -21 -4 -11 -5
-22 -3 -24 1 -1 110 -5 241 -7 l237 -5 0 22 c0 19 -7 23 -46 28 -51 5 -64 17
-64 61 0 31 45 199 90 336 l28 85 185 0 c102 0 188 -3 192 -7 14 -13 -120
-431 -146 -453 -11 -11 -41 -22 -67 -25 -38 -4 -48 -9 -50 -26 -3 -20 3 -21
95 -27 54 -4 169 -7 256 -7 l158 0 -3 23 c-2 18 -10 23 -45 25 -23 2 -47 10
-53 17 -21 26 -12 94 30 234 22 75 53 181 70 236 16 55 47 159 68 230 22 72
45 151 52 178 15 54 66 107 105 107 18 0 25 5 25 20 0 19 -7 20 -165 22 -310
4 -310 4 -310 -12 0 -8 15 -18 36 -23 21 -5 47 -19 59 -32 23 -24 23 -25 6
-87 -10 -35 -21 -81 -27 -103 -9 -41 -61 -207 -66 -214 -6 -8 -368 1 -377 9
-5 5 0 33 12 68 12 32 22 66 22 75 0 8 16 64 35 124 41 123 60 147 129 157 36
6 46 11 46 27 0 18 -9 19 -227 19 -126 0 -237 3 -248 6 -11 3 -24 2 -28 -2z"/>
<path d="M344 1271 c-12 -12 -1 -31 16 -31 11 0 36 -6 55 -14 61 -26 62 -20
-56 -416 -22 -74 -51 -171 -65 -215 -13 -44 -33 -115 -45 -159 -16 -64 -58
-166 -75 -185 -2 -2 -21 -7 -41 -10 -29 -5 -39 -11 -41 -29 -3 -21 -1 -22 95
-22 54 0 163 -3 241 -7 l144 -6 -4 24 c-2 17 -10 25 -28 27 -56 6 -68 13 -78
41 -11 31 -8 51 28 166 12 39 26 88 32 110 19 81 52 180 60 186 12 8 134 -8
158 -21 39 -21 60 -70 60 -137 0 -56 2 -63 20 -63 20 0 21 3 51 123 6 23 21
74 34 112 13 39 27 88 31 110 4 22 11 48 16 59 7 13 6 21 -3 27 -22 14 -25 12
-63 -45 -52 -78 -80 -95 -180 -108 -119 -15 -120 -14 -95 69 11 37 34 117 50
177 49 178 56 186 156 186 94 0 177 -28 219 -73 24 -26 34 -49 43 -103 11 -62
22 -83 43 -84 3 0 11 19 16 43 13 55 58 217 67 240 6 13 2 17 -16 18 -77 5
-841 13 -845 10z"/>
<path d="M1302 1243 c2 -9 16 -20 32 -24 57 -16 56 -13 156 -334 12 -38 31
-101 42 -140 22 -78 25 -60 -42 -285 -16 -52 -34 -114 -39 -137 -17 -64 -58
-101 -120 -109 -40 -5 -51 -10 -49 -23 3 -13 21 -17 88 -23 107 -8 425 -10
432 -2 3 3 4 14 1 25 -4 15 -14 19 -49 19 -36 0 -47 5 -60 26 -14 21 -15 33
-7 67 76 304 96 358 162 445 31 41 65 88 76 106 11 18 31 46 45 63 14 17 43
56 65 88 80 115 124 161 175 186 31 15 49 30 47 39 -2 13 -30 15 -170 18 -157
2 -168 1 -165 -15 2 -12 14 -19 33 -21 43 -5 65 -29 65 -71 0 -43 -17 -76 -90
-173 -31 -40 -63 -85 -72 -99 -9 -14 -23 -33 -31 -41 -8 -8 -22 -29 -31 -47
-22 -41 -36 -36 -53 20 -7 24 -26 87 -42 139 -64 204 -66 216 -47 244 11 18
29 28 56 32 30 5 40 11 40 25 0 18 -12 19 -226 19 -206 0 -225 -1 -222 -17z"/>
</g>
</svg>
